<?xml version="1.0" encoding="utf-8"?>
<!-- Generator: Adobe Illustrator 27.0.0, SVG Export Plug-In . SVG Version: 6.00 Build 0)  -->
<svg version="1.1" id="Livello_1" xmlns="http://www.w3.org/2000/svg" xmlns:xlink="http://www.w3.org/1999/xlink" x="0px" y="0px"
	 viewBox="0 0 2500 676" style="enable-background:new 0 0 2500 676;" xml:space="preserve">
<style type="text/css">
	.st0{fill:#D81F26;}
</style>
<path class="st0" d="M343.8,632.3c-37.6,6.6-75.9,8.6-115.5,13.9L107.5,292.5v368.8c-37.6,4-71.9,9.2-107.5,14.5V0.2h100.3
	l137.2,383.4V0.2h106.2L343.8,632.3z M551.6,247.6c40.9,0,103.6-2,141.2-2v105.6c-46.8,0-101.6,0-141.2,2v157
	c62-4,124-9.2,186.7-11.2v101.6L446,623.7V0.2h292.3v105.6H551.6V247.6z M1130.9,105.8h-109.5v485.6c-35.6,0-71.3,0-105.6,1.3V105.8
	H806.3V0.2h324.6L1130.9,105.8L1130.9,105.8z M1302.5,240.4H1447v105.6h-144.5v239.5h-103.6V0.2h294.9v105.6h-191.3V240.4z
	 M1665.3,493.1c60,1.3,120.7,5.9,179.5,9.2v104.3c-94.4-5.9-188.7-11.9-285-13.9V0.2h105.6V493.1z M1933.9,613.8
	c33.7,2,69.3,4,103.6,7.9V0.2h-103.6V613.8z M2500,0.2l-133.9,321.3L2500,675.8c-39.6-5.3-79.2-12.5-118.8-19.1l-75.9-195.3
	l-77.2,179.5c-38.3-6.6-75.2-8.6-113.5-13.9l135.9-309.4L2127.9,0.2h113.5l69.3,177.5l73.9-177.5H2500z"/>
</svg>
